<?xml version="1.0" encoding="UTF-8"?>
<!-- Generator: Adobe Illustrator 19.2.1, SVG Export Plug-In . SVG Version: 6.00 Build 0)  -->
<svg version="1.1" id="Layer_1" xmlns="http://www.w3.org/2000/svg" xmlns:xlink="http://www.w3.org/1999/xlink" x="0px" y="0px" width="186.8px" height="55.9px" viewBox="0 0 186.8 55.9" style="enable-background:new 0 0 186.8 55.9;" xml:space="preserve">
<style type="text/css">
	.st0{fill:#C1000E;}
	.st1{fill:#0053A5;}
</style>
<g>
	<path class="st0" d="M67,26.2h6.7v4.5c1.9-2.7,4.6-5.1,9.1-5.1c6.6,0,10.4,4.4,10.4,11.1v18.6h-6.7V38.7c0-4.5-2.3-7.1-6.2-7.1   c-3.9,0-6.6,2.7-6.6,7.2v16.4H67V26.2"/>
	<path class="st0" d="M95.1,40.8v-0.1c0-8.3,5.9-15.2,14.2-15.2c9.3,0,13.9,7.3,13.9,15.6c0,0.6-0.1,1.2-0.1,1.9h-21.4   c0.7,4.7,4.1,7.4,8.4,7.4c3.3,0,5.6-1.2,7.9-3.5l3.9,3.5c-2.8,3.3-6.6,5.5-11.9,5.5C101.6,55.9,95.1,49.8,95.1,40.8 M116.6,38.7   c-0.4-4.3-3-7.7-7.4-7.7c-4.1,0-6.9,3.1-7.5,7.7H116.6z"/>
	<polyline class="st0" points="121.4,26.2 128.3,26.2 134.1,46.1 140.6,26.1 146.3,26.1 152.7,46.1 158.7,26.2 165.4,26.2    155.9,55.5 149.9,55.5 143.4,35.6 136.8,55.5 130.9,55.5 121.4,26.2  "/>
	<path class="st0" d="M163.6,51.5l3-4.5c3.2,2.4,6.6,3.6,9.5,3.6c2.9,0,4.5-1.2,4.5-3.1v-0.1c0-2.3-3.1-3-6.5-4.1   c-4.3-1.2-9.1-3-9.1-8.5v-0.1c0-5.6,4.6-8.9,10.4-8.9c3.6,0,7.6,1.3,10.7,3.3l-2.6,4.7c-2.8-1.7-5.8-2.8-8.2-2.8   c-2.6,0-4.1,1.3-4.1,2.9v0.1c0,2.1,3.1,3,6.6,4.1c4.2,1.3,9,3.3,9,8.5v0.1c0,6.1-4.7,9.1-10.8,9.1   C171.8,55.8,167.3,54.4,163.6,51.5"/>
	<g>
		<polyline class="st0" points="21,36 48.9,36 47.1,32.8 19.2,32.8 21,36   "/>
		<polyline class="st0" points="24.5,42 52.4,42 50.6,38.9 22.7,38.9 24.5,42   "/>
		<polyline class="st0" points="28,48.1 55.9,48.1 54.1,44.9 26.2,44.9 28,48.1   "/>
		<polyline class="st0" points="31.4,53.8 59.3,53.8 57.4,50.7 29.5,50.7 31.4,53.8   "/>
		<polyline class="st1" points="31.4,53.8 29.5,50.7 27.7,53.8 31.4,53.8   "/>
		<polyline class="st1" points="24.6,53.8 28,48 26.2,44.9 21,53.8 24.6,53.8   "/>
		<polyline class="st1" points="17.7,53.8 24.5,42 22.7,38.9 14,53.8 17.7,53.8   "/>
		<polyline class="st1" points="10.7,53.8 21,36 19.2,32.8 7,53.8 10.7,53.8   "/>
		<polyline class="st1" points="29.6,2.8 0,53.8 3.7,53.8 31.5,6 29.6,2.8   "/>
		<polyline class="st1" points="38.7,29.6 42,24 40.1,20.9 35.1,29.6 38.7,29.6   "/>
		<polyline class="st1" points="31.7,29.6 38.5,18 36.6,14.8 28.1,29.6 31.7,29.6   "/>
		<polyline class="st1" points="24.8,29.6 35,12 33.1,8.8 21.1,29.6 24.8,29.6   "/>
	</g>
	<g>
		<path class="st0" d="M84.9,12.2c0,0.9,0,1.7,0,2.4c0,0.7,0,1.4,0.1,2.1c0,0.7,0.1,1.4,0.1,2.1c0,0.7,0.1,1.5,0.2,2.4h-6.4    l-0.3-2.7c-0.6,1.1-1.4,1.8-2.4,2.3c-0.9,0.5-1.9,0.7-3,0.7c-0.8,0-1.6-0.2-2.4-0.5c-0.8-0.3-1.4-0.9-2-1.5    c-0.6-0.7-1-1.5-1.4-2.6c-0.3-1-0.5-2.2-0.5-3.6c0-1.4,0.3-2.7,0.8-3.9c0.5-1.2,1.3-2.2,2.2-3c0.9-0.8,2-1.5,3.2-2    c1.2-0.5,2.5-0.7,3.8-0.7c1.1,0,2,0,2.7,0.1c0.7,0.1,1.4,0.3,2,0.5l3.8-1c-0.1,0.8-0.2,1.6-0.2,2.3C85.1,6.4,85,7.1,85,7.8    c0,0.7-0.1,1.4-0.1,2.1C84.9,10.6,84.9,11.3,84.9,12.2 M73.6,11.8c0,1.8,0.3,3,0.8,3.7c0.5,0.7,1.2,1.1,2,1.1    c0.4,0,0.7-0.1,1.1-0.3c0.4-0.2,0.7-0.5,0.9-0.9c0-0.5,0.1-1.1,0.1-1.6c0-0.6,0-1.2,0-1.8c0-1.8,0-3.2-0.1-4    c-0.2-0.1-0.5-0.2-0.8-0.3c-0.3-0.1-0.6-0.1-1-0.1c-0.8,0-1.5,0.3-2.1,1C74,9.2,73.6,10.3,73.6,11.8z"/>
		<path class="st0" d="M100.4,8.6c-0.7-0.3-1.4-0.5-2.1-0.6C97.6,8,96.8,7.9,96,7.9c-0.9,0-1.6,0.1-1.9,0.3    c-0.3,0.2-0.5,0.4-0.5,0.6c0,0.2,0.1,0.4,0.4,0.6c0.2,0.2,0.8,0.4,1.7,0.6l1.8,0.5c1.5,0.4,2.6,1.1,3.4,1.9c0.7,0.8,1.1,2,1.1,3.4    c0,0.9-0.2,1.6-0.6,2.3c-0.4,0.7-0.9,1.3-1.6,1.8c-0.7,0.5-1.5,0.8-2.4,1.1c-0.9,0.3-1.9,0.4-3,0.4c-1.7,0-3.1-0.1-4.2-0.3    c-1.1-0.2-2.2-0.5-3.2-1l1.1-3.9c0.7,0.4,1.6,0.7,2.5,0.9c0.9,0.2,1.8,0.3,2.7,0.3c0.9,0,1.6-0.1,2-0.3c0.4-0.2,0.6-0.4,0.6-0.8    c0-0.2-0.1-0.5-0.4-0.7c-0.3-0.2-0.9-0.4-1.8-0.7L92,14.5c-1.4-0.4-2.4-1-3.2-1.8c-0.7-0.8-1.1-1.9-1.1-3.4c0-0.8,0.2-1.5,0.5-2.2    c0.4-0.7,0.9-1.3,1.5-1.8c0.7-0.5,1.5-0.9,2.4-1.2c0.9-0.3,2-0.4,3.1-0.4c1.3,0,2.4,0.1,3.4,0.2c1,0.1,2,0.4,2.8,0.6L100.4,8.6"/>
		<path class="st0" d="M110.2,12.9c0,0.8,0,1.5,0,2.2c0,0.7,0,1.3,0,1.9c0,0.6,0.1,1.3,0.1,1.9c0,0.7,0.1,1.4,0.1,2.2h-6.9    c0-0.8,0.1-1.5,0.1-2.2c0-0.7,0.1-1.3,0.1-1.9c0-0.6,0-1.3,0-1.9c0-0.7,0-1.4,0-2.2c0-0.8,0-1.6,0-2.3c0-0.7,0-1.4,0-2.1    c0-0.7,0-1.4-0.1-2.1c0-0.7-0.1-1.5-0.2-2.3h6.9c-0.1,0.8-0.1,1.6-0.1,2.3c0,0.7-0.1,1.4-0.1,2.1c0,0.7,0,1.3,0,2.1    C110.2,11.3,110.2,12.1,110.2,12.9"/>
		<path class="st0" d="M130.7,12.2c0,0.9,0,1.7,0,2.4c0,0.7,0,1.4,0.1,2.1c0,0.7,0.1,1.4,0.1,2.1c0,0.7,0.1,1.5,0.2,2.4h-6.4    l-0.3-2.7c-0.6,1.1-1.4,1.8-2.4,2.3c-0.9,0.5-1.9,0.7-3,0.7c-0.8,0-1.6-0.2-2.4-0.5c-0.8-0.3-1.4-0.9-2-1.5    c-0.6-0.7-1-1.5-1.4-2.6c-0.3-1-0.5-2.2-0.5-3.6c0-1.4,0.3-2.7,0.8-3.9c0.5-1.2,1.3-2.2,2.2-3c0.9-0.8,1.9-1.5,3.2-2    c1.2-0.5,2.5-0.7,3.8-0.7c1.1,0,2,0,2.7,0.1c0.7,0.1,1.4,0.3,2,0.5l3.8-1C131,4.2,131,5,130.9,5.7c-0.1,0.7-0.1,1.4-0.1,2.1    c0,0.7-0.1,1.4-0.1,2.1C130.7,10.6,130.7,11.3,130.7,12.2 M119.4,11.8c0,1.8,0.3,3,0.8,3.7c0.5,0.7,1.2,1.1,2,1.1    c0.4,0,0.7-0.1,1.1-0.3c0.4-0.2,0.7-0.5,1-0.9c0-0.5,0.1-1.1,0.1-1.6c0-0.6,0-1.2,0-1.8c0-1.8,0-3.2-0.1-4    c-0.2-0.1-0.5-0.2-0.8-0.3c-0.3-0.1-0.6-0.1-1-0.1c-0.8,0-1.5,0.3-2.1,1C119.7,9.2,119.4,10.3,119.4,11.8z"/>
		<path class="st0" d="M140.6,6.9c0.6-1,1.4-1.8,2.3-2.3c0.9-0.5,1.9-0.8,3-0.8c0.8,0,1.5,0.1,2.1,0.4c0.6,0.3,1.2,0.7,1.7,1.2    c0.5,0.5,0.8,1.1,1.1,1.9c0.3,0.7,0.4,1.5,0.4,2.4c0,0.5,0,1,0,1.5c0,0.4,0,0.9-0.1,1.3c0,0.4,0,0.9-0.1,1.4c0,0.5,0,1,0,1.6    c0,0.6,0,1.1,0,1.5c0,0.4,0,0.9,0,1.3c0,0.4,0,0.9,0.1,1.3c0,0.5,0.1,1,0.1,1.5h-6.9c0-0.5,0.1-1,0.1-1.4c0-0.4,0.1-0.8,0.1-1.3    c0-0.4,0-0.9,0-1.3c0-0.4,0-0.9,0-1.5c0-1,0-1.8,0-2.5c0-0.7,0-1.4-0.1-2.1c-0.1-0.8-0.3-1.4-0.6-1.7c-0.3-0.4-0.7-0.5-1.1-0.5    c-0.4,0-0.8,0.1-1.1,0.3c-0.3,0.2-0.6,0.5-0.9,0.9c-0.1,0.7-0.1,1.5-0.1,2.3c0,0.8,0,1.7,0,2.7c0,0.6,0,1.1,0,1.7c0,0.5,0,1,0,1.5    c0,0.5,0,0.9,0.1,1.5c0,0.5,0,1,0.1,1.7h-6.9c0-0.8,0.1-1.5,0.1-2.2c0-0.7,0.1-1.3,0.1-1.9c0-0.6,0-1.3,0.1-1.9c0-0.7,0-1.4,0-2.2    c0-0.8,0-1.6,0-2.3c0-0.7,0-1.4-0.1-2.1c0-0.7,0-1.4-0.1-2.1c0-0.7-0.1-1.5-0.2-2.3h6.5L140.6,6.9"/>
		<path class="st0" d="M159.7,13.9c0.2,1,0.6,1.7,1.3,2.2c0.7,0.5,1.7,0.7,3.1,0.7c1.2,0,2.3-0.1,3.3-0.4c1-0.3,1.8-0.6,2.6-1.2    l0.9,4c-1.1,0.8-2.3,1.3-3.6,1.7c-1.3,0.3-2.7,0.5-4.5,0.5c-1.4,0-2.7-0.2-3.9-0.6c-1.2-0.4-2.2-1-3-1.7c-0.8-0.8-1.5-1.7-2-2.8    c-0.5-1.1-0.7-2.4-0.7-3.8c0-1.3,0.2-2.4,0.7-3.5c0.5-1.1,1.1-2,2-2.8c0.8-0.8,1.8-1.4,3-1.8c1.2-0.4,2.4-0.7,3.8-0.7    c1.2,0,2.3,0.2,3.4,0.6c1,0.4,1.9,0.9,2.6,1.7c0.7,0.7,1.3,1.7,1.7,2.8c0.4,1.1,0.6,2.3,0.6,3.7c0,0.2,0,0.4,0,0.6s0,0.5,0,0.8    H159.7 M162.2,7.4c-0.8,0-1.4,0.3-1.8,0.8c-0.4,0.6-0.6,1.3-0.7,2.1h5c-0.1-0.9-0.3-1.6-0.7-2.1C163.5,7.7,163,7.4,162.2,7.4z"/>
		<path class="st0" d="M180.3,8.6c0,0.5,0,1.1,0,1.7c0,0.6,0,1.2,0,1.7c0,0.5,0,1,0,1.5c0,0.5,0,0.9,0.1,1.2c0,0.8,0.3,1.3,0.7,1.7    c0.4,0.4,0.9,0.5,1.5,0.5c0.5,0,1-0.1,1.4-0.2c0.4-0.1,0.8-0.3,1.3-0.6l0.8,3.5c-0.6,0.6-1.5,1-2.7,1.3c-1.1,0.3-2.4,0.5-3.7,0.5    c-0.8,0-1.6-0.1-2.3-0.4c-0.7-0.3-1.3-0.7-1.8-1.2c-0.5-0.5-0.9-1.1-1.2-1.9c-0.3-0.7-0.4-1.6-0.4-2.5c0-0.6,0-1.2,0-1.8    c0-0.5,0-1.1,0.1-1.6c0-0.5,0-1.1,0-1.7c0-0.6,0-1.2,0-2h-2.4V4.2h2.4c0-0.8,0-1.5,0-2.1c0-0.6,0-1.3-0.1-2.1l6.7,0    c-0.1,0.9-0.1,0.6-0.1,1.5c-0.1,0.9-0.1,1.8-0.1,2.7h4.7v4.4H180.3"/>
	</g>
</g>
</svg>