<?xml version="1.0" encoding="utf-8"?>
<!-- Generator: Adobe Illustrator 15.1.0, SVG Export Plug-In . SVG Version: 6.00 Build 0)  -->
<!DOCTYPE svg PUBLIC "-//W3C//DTD SVG 1.1//EN" "http://www.w3.org/Graphics/SVG/1.1/DTD/svg11.dtd">
<svg version="1.1" id="Layer_1" xmlns="http://www.w3.org/2000/svg" xmlns:xlink="http://www.w3.org/1999/xlink" x="0px" y="0px"
	 width="50px" height="50px" viewBox="0 0 100 99.864" enable-background="new 0 0 100 99.864" xml:space="preserve">
<path fill="#33A6B2" d="M36.353,65.447c2.177,5.562,7.251,9.508,13.583,9.508c6.334,0,11.403-3.946,13.582-9.508H36.353z"/>
<path fill="#33A6B2" d="M43.146,47.112c0,2.625-2.128,4.754-4.754,4.754s-4.754-2.129-4.754-4.754s2.128-4.754,4.754-4.754
	S43.146,44.487,43.146,47.112"/>
<path fill="#33A6B2" d="M66.236,47.112c0,2.625-2.128,4.754-4.755,4.754c-2.626,0-4.754-2.129-4.754-4.754s2.128-4.754,4.754-4.754
	C64.108,42.358,66.236,44.487,66.236,47.112"/>
<path fill="#33A6B2" d="M81.474,57.664c-1.223-0.212-2.892-0.86-4.492-2.092c-1.196,13.882-12.857,24.817-27.046,24.817
	c-14.717,0-26.708-11.77-27.125-26.388c-1.557,1.02-3.212,1.632-4.513,1.889c-0.174,0.033-0.351,0.05-0.524,0.05
	c-0.11,0-0.214-0.034-0.319-0.048c1.36,16.753,15.375,29.93,32.481,29.93c16.491,0,30.113-12.246,32.286-28.14
	c-0.087,0.011-0.178,0.024-0.268,0.024C81.793,57.706,81.636,57.691,81.474,57.664"/>
<path fill="#33A6B2" d="M35.009,24.247c-0.878-1.916-1.424-3.938-1.331-5.876c-6.296,1.119-12.854,5.979-15.865,11.733
	c-0.49,0.938-0.886,1.899-1.172,2.872c-1.288,4.384,0.069,13.966,0.769,18.182c0.093,0.564,0.174,1.039,0.239,1.384
	c0.073,0.42,0.122,0.662,0.123,0.681h0.006c0.201-0.039,3.085-0.659,5.138-2.815c0.33-0.347,0.646-0.718,0.916-1.15
	c0.894-1.412,1.398-3.301,0.988-5.812c-0.023-0.144-0.025-0.289-0.041-0.434c-0.027-0.255-0.064-0.507-0.073-0.76
	c-0.098-2.79,1.033-5.615,3.256-8.066c1.106-1.218,2.418-2.266,3.842-3.098c1.823-1.065,3.833-1.773,5.845-2.061
	c0.072-0.036,0.146-0.069,0.218-0.105C36.808,27.546,35.783,25.945,35.009,24.247"/>
<path fill="#33A6B2" d="M83.149,34.126c-2.652-6.799-7.057-12.191-13.467-16.482c-6.731-4.508-20.401-4.955-20.978-4.971
	c-0.417-0.014-0.815-0.02-1.202-0.02c-4.916,0-8.206,0.951-9.871,2.8c-0.455,0.505-0.811,1.062-1.02,1.701
	c-0.101,0.31-0.165,0.631-0.201,0.961c-0.183,1.545,0.275,3.286,1.055,4.982c0.244,0.533,0.52,1.061,0.814,1.577
	c0.56,0.97,1.194,1.894,1.838,2.722c0.109,0.139,0.219,0.271,0.326,0.404c0.812,1.002,1.618,1.839,2.292,2.402
	c0.146,0.123,0.286,0.239,0.419,0.335c0.81,0.589,3.029,1.964,6.147,1.964c1.403,0,2.826-0.276,4.229-0.826
	c3.317-1.295,5.561-1.871,7.273-1.871c1.049,0,1.854,0.208,2.711,0.426l0.793,0.196c0.236,0.057,0.45,0.134,0.678,0.196
	c5.906,1.673,8.283,6.3,9.186,10.389c0.31,1.41,0.448,2.755,0.498,3.892c0.136,3.113,1.111,5.362,2.363,6.941
	c1.574,1.987,3.585,2.91,4.912,3.14h0.011c0.005,0,0.03-0.004,0.037-0.027c0.167-0.747,0.345-1.621,0.521-2.572
	C83.585,46.684,84.653,37.989,83.149,34.126"/>
</svg>
